<?xml version="1.0" encoding="UTF-8"?>
<svg version="1.1" xmlns="http://www.w3.org/2000/svg" width="128" height="128">
<path d="M0 0 C8.45351658 -0.85107217 14.4196709 1.35447985 21.9375 5.0625 C22.96423828 5.52849609 23.99097656 5.99449219 25.04882812 6.47460938 C26.03173828 6.94833984 27.01464844 7.42207031 28.02734375 7.91015625 C28.91156006 8.33433838 29.79577637 8.75852051 30.70678711 9.19555664 C33.75349982 11.59290079 34.87912209 14.38314112 36 18 C36.27354493 20.69692555 36.41173599 23.15526163 36.38818359 25.84375 C36.39344055 26.59430664 36.39869751 27.34486328 36.40411377 28.11816406 C36.41722938 30.57899289 36.40860608 33.03916553 36.3984375 35.5 C36.40046067 37.22200646 36.40337413 38.94401208 36.40713501 40.66601562 C36.41154693 44.26701044 36.40516394 47.86778131 36.39111328 51.46875 C36.37402201 56.07199939 36.38386928 60.67472394 36.40183067 65.2779541 C36.41269921 68.83142004 36.40920812 72.38476266 36.4014473 75.93823242 C36.39945377 77.63501041 36.40187464 79.33179978 36.40888596 81.02856445 C36.41655127 83.40475901 36.40482621 85.78011732 36.38818359 88.15625 C36.39425629 88.84944336 36.40032898 89.54263672 36.40658569 90.25683594 C36.3420588 95.25920635 35.26660866 98.62859633 33 103 C30.70678711 104.80444336 30.70678711 104.80444336 28.02734375 106.08984375 C27.04443359 106.56357422 26.06152344 107.03730469 25.04882812 107.52539062 C24.02208984 107.99138672 22.99535156 108.45738281 21.9375 108.9375 C20.93783203 109.43056641 19.93816406 109.92363281 18.90820312 110.43164062 C12.40622823 113.47772503 7.16902245 114.72175354 0 114 C-0.27972656 113.360625 -0.55945313 112.72125 -0.84765625 112.0625 C-2.39959475 109.28479313 -4.09342771 109.13427211 -7 108 C-8.5 106.1875 -8.5 106.1875 -10 104 C-13.14287005 100.51251546 -13.14287005 100.51251546 -17.0625 98.0625 C-20.00174601 96.45065542 -21.19047499 93.77083518 -23 91 C-24.98146468 89.2662184 -26.64490153 88.15064783 -29.0625 87.125 C-31.68223446 85.60386386 -32.48477703 83.5885059 -34 81 C-35.9571059 79.2954239 -37.70299268 78.13500333 -40.0625 77.0625 C-42.42457044 75.76717105 -43.52010895 74.21983658 -45 72 C-45.268125 72.639375 -45.53625 73.27875 -45.8125 73.9375 C-47 76 -47 76 -50 77 C-50.804375 77.804375 -51.60875 78.60875 -52.4375 79.4375 C-54.73069898 81.73069898 -56.18134847 82.63613636 -59 84 C-59.86625 85.0828125 -59.86625 85.0828125 -60.75 86.1875 C-63.32465128 88.26152464 -63.89525726 88.26055928 -67.0625 88 C-69.74668152 87.49888663 -70.75296742 87.23820999 -72.75 85.3125 C-73.1625 84.549375 -73.575 83.78625 -74 83 C-74.7425 82.071875 -75.485 81.14375 -76.25 80.1875 C-78.43863295 76.20106141 -78.22345269 74.32286615 -77 70 C-75.4671509 67.81021557 -74.68420736 67.13242723 -72.0625 66.625 C-68.16691379 65.44451933 -66.53735684 61.87320487 -64.5 58.5625 C-63.68682355 55.80988529 -63.68682355 55.80988529 -65.625 52.875 C-68.21703935 49.73726816 -70.31468091 47.64438671 -74.125 46.1875 C-76 45 -76 45 -77.375 42.1875 C-78.10450762 38.46701114 -77.80461288 37.28111433 -76 34 C-75.443125 32.948125 -74.88625 31.89625 -74.3125 30.8125 C-71.40361909 27.27467187 -69.49583043 26.63099374 -65 26 C-61.09750546 26.95394311 -60.27059878 27.59410183 -58 31 C-57.38125 31.309375 -56.7625 31.61875 -56.125 31.9375 C-53.55862378 33.22068811 -52.02062407 34.97937593 -50 37 C-48.9171875 37.5259375 -48.9171875 37.5259375 -47.8125 38.0625 C-46 39 -46 39 -45 42 C-44.443125 41.21625 -43.88625 40.4325 -43.3125 39.625 C-40.83982408 36.81817869 -39.37301628 36.34920651 -36 35 C-33.93552157 32.69264175 -32.21537359 30.32306039 -30.5 27.75 C-29 26 -29 26 -27.0625 25.5625 C-23.91335486 24.70364224 -22.88368767 22.59007055 -21 20 C-18.39357036 16.41615924 -17.25563545 14.96094994 -13 14 C-11.41977909 12.22743787 -11.41977909 12.22743787 -10 10 C-7.41416171 6.41319205 -6.2344313 4.98803397 -2 4 C-0.86656226 2.00932891 -0.86656226 2.00932891 0 0 Z M5 33 C3.8239997 35.3520006 3.87915459 36.73734401 3.88647461 39.35791016 C3.88655014 40.25869293 3.88662567 41.15947571 3.88670349 42.08755493 C3.89186478 43.06155243 3.89702606 44.03554993 3.90234375 45.0390625 C3.9037587 46.03505463 3.90517365 47.03104675 3.90663147 48.05722046 C3.91224064 51.24651053 3.9247947 54.43573106 3.9375 57.625 C3.94251382 59.78385315 3.94707693 61.94270741 3.95117188 64.1015625 C3.96221305 69.4010655 3.97896012 74.70052778 4 80 C4.66 80.33 5.32 80.66 6 81 C6 65.16 6 49.32 6 33 C5.67 33 5.34 33 5 33 Z M-2 39 C-2 39.66 -2 40.32 -2 41 C-3.32 41.33 -4.64 41.66 -6 42 C-6 42.66 -6 43.32 -6 44 C-7.32 44.33 -8.64 44.66 -10 45 C-10 45.66 -10 46.32 -10 47 C-11.32 47.33 -12.64 47.66 -14 48 C-14 48.66 -14 49.32 -14 50 C-14.639375 50.103125 -15.27875 50.20625 -15.9375 50.3125 C-16.9584375 50.6528125 -16.9584375 50.6528125 -18 51 C-18.33 51.99 -18.66 52.98 -19 54 C-19.99 54.66 -20.98 55.32 -22 56 C-20.98305687 59.05082939 -20.27855788 59.90372675 -18 62 C-17.34 62.66 -16.68 63.32 -16 64 C-15.34 64.33 -14.68 64.66 -14 65 C-13.34 65.66 -12.68 66.32 -12 67 C-11.34 67.33 -10.68 67.66 -10 68 C-9.34 68.66 -8.68 69.32 -8 70 C-7.34 70.33 -6.68 70.66 -6 71 C-5.34 71.66 -4.68 72.32 -4 73 C-3.34 73.33 -2.68 73.66 -2 74 C-1.34 74.66 -0.68 75.32 0 76 C1.32 76.33 2.64 76.66 4 77 C4 63.8 4 50.6 4 37 C1.91571791 37 -0.09817964 38.21976601 -2 39 Z M-61 56 C-60 58 -60 58 -60 58 Z M-25 56 C-24 58 -24 58 -24 58 Z " fill="#007ACC" transform="translate(85,7)"/>
<path d="M0 0 C8.45351658 -0.85107217 14.4196709 1.35447985 21.9375 5.0625 C23.47760742 5.76149414 23.47760742 5.76149414 25.04882812 6.47460938 C26.03173828 6.94833984 27.01464844 7.42207031 28.02734375 7.91015625 C28.91156006 8.33433838 29.79577637 8.75852051 30.70678711 9.19555664 C33.75349982 11.59290079 34.87912209 14.38314112 36 18 C36.27354493 20.69692555 36.41173599 23.15526163 36.38818359 25.84375 C36.39344055 26.59430664 36.39869751 27.34486328 36.40411377 28.11816406 C36.41722938 30.57899289 36.40860608 33.03916553 36.3984375 35.5 C36.40046067 37.22200646 36.40337413 38.94401208 36.40713501 40.66601562 C36.41154693 44.26701044 36.40516394 47.86778131 36.39111328 51.46875 C36.37402201 56.07199939 36.38386928 60.67472394 36.40183067 65.2779541 C36.41269921 68.83142004 36.40920812 72.38476266 36.4014473 75.93823242 C36.39945377 77.63501041 36.40187464 79.33179978 36.40888596 81.02856445 C36.41655127 83.40475901 36.40482621 85.78011732 36.38818359 88.15625 C36.39729263 89.19604004 36.39729263 89.19604004 36.40658569 90.25683594 C36.3420588 95.25920635 35.26660866 98.62859633 33 103 C30.70678711 104.80444336 30.70678711 104.80444336 28.02734375 106.08984375 C27.04443359 106.56357422 26.06152344 107.03730469 25.04882812 107.52539062 C24.02208984 107.99138672 22.99535156 108.45738281 21.9375 108.9375 C20.93783203 109.43056641 19.93816406 109.92363281 18.90820312 110.43164062 C12.40622823 113.47772503 7.16902245 114.72175354 0 114 C1 112 1 112 6 110 C6 75.02 6 40.04 6 4 C4.02 3.01 2.04 2.02 0 1 C0 0.67 0 0.34 0 0 Z " fill="#1E9BEF" transform="translate(85,7)"/>
<path d="M0 0 C5.56818182 0.56818182 5.56818182 0.56818182 7 2 C7.24198864 6.09694108 7.2285101 10.19728432 7.24023438 14.30078125 C7.24992838 16.35978773 7.28093283 18.41779107 7.3125 20.4765625 C7.32023437 22.41789062 7.32023437 22.41789062 7.328125 24.3984375 C7.34214355 26.18773682 7.34214355 26.18773682 7.35644531 28.01318359 C6.96159329 31.32182718 6.52628966 31.99265298 4 34 C3.34 34.99 2.68 35.98 2 37 C1.01 37.33 0.02 37.66 -1 38 C-1.495 38.99 -1.495 38.99 -2 40 C-2.99 40.33 -3.98 40.66 -5 41 C-5.495 41.99 -5.495 41.99 -6 43 C-6.99 43.33 -7.98 43.66 -9 44 C-9.495 44.99 -9.495 44.99 -10 46 C-10.99 46.33 -11.98 46.66 -13 47 C-13.33 47.66 -13.66 48.32 -14 49 C-15.485 49.495 -15.485 49.495 -17 50 C-17.78375 50.845625 -18.5675 51.69125 -19.375 52.5625 C-22 55 -22 55 -24.40112305 55.33007812 C-27.48421016 54.93850144 -28.78752858 54.07707655 -31.20703125 52.15625 C-31.95791016 51.56972656 -32.70878906 50.98320313 -33.48242188 50.37890625 C-34.63581055 49.44884766 -34.63581055 49.44884766 -35.8125 48.5 C-36.60076172 47.87996094 -37.38902344 47.25992188 -38.20117188 46.62109375 C-40.14287725 45.09126528 -42.0750764 43.55085323 -44 42 C-42.98832036 36.21357063 -42.98832036 36.21357063 -40 34 C-39.360625 33.87625 -38.72125 33.7525 -38.0625 33.625 C-34.31127513 32.48826519 -32.59286145 28.88929217 -30.5 25.75 C-29 24 -29 24 -27.0625 23.5625 C-23.91335486 22.70364224 -22.88368767 20.59007055 -21 18 C-18.39357036 14.41615924 -17.25563545 12.96094994 -13 12 C-11.41977909 10.22743787 -11.41977909 10.22743787 -10 8 C-6.17621145 2.69603524 -6.17621145 2.69603524 -2 2 C-1.34 1.34 -0.68 0.68 0 0 Z " fill="#0065A9" transform="translate(85,9)"/>
<path d="M0 0 C3.40044376 0.43132472 4.31267706 1.50843975 6.5859375 4.0234375 C9.77473066 7.43006094 13.0074593 10.42315494 16.6484375 13.3359375 C15.3359375 16.2734375 15.3359375 16.2734375 13.6484375 19.3359375 C12.6584375 19.6659375 11.6684375 19.9959375 10.6484375 20.3359375 C9.8440625 21.1403125 9.0396875 21.9446875 8.2109375 22.7734375 C5.91773852 25.06663648 4.46708903 25.97207386 1.6484375 27.3359375 C1.0709375 28.0578125 0.4934375 28.7796875 -0.1015625 29.5234375 C-2.67621378 31.59746214 -3.24681976 31.59649678 -6.4140625 31.3359375 C-9.09824402 30.83482413 -10.10452992 30.57414749 -12.1015625 28.6484375 C-12.5140625 27.8853125 -12.9265625 27.1221875 -13.3515625 26.3359375 C-14.4653125 24.94375 -14.4653125 24.94375 -15.6015625 23.5234375 C-17.79019545 19.53699891 -17.57501519 17.65880365 -16.3515625 13.3359375 C-14.8187134 11.14615307 -14.03576986 10.46836473 -11.4140625 9.9609375 C-7.65600671 8.82213271 -5.90823825 5.23145936 -3.9140625 2.0234375 C-2.3515625 0.3359375 -2.3515625 0.3359375 0 0 Z " fill="#0065A9" transform="translate(24.3515625,63.6640625)"/>
<path d="M0 0 C0.33 0 0.66 0 1 0 C1 25.74 1 51.48 1 78 C0.67 78 0.34 78 0 78 C0 52.26 0 26.52 0 0 Z " fill="#1E9BEF" transform="translate(122,25)"/>
<path d="M0 0 C1.98 0 3.96 0 6 0 C6 0.33 6 0.66 6 1 C4.02 1 2.04 1 0 1 C0 0.67 0 0.34 0 0 Z " fill="#1F9CF0" transform="translate(87,121)"/>
<path d="M0 0 C1.98 0 3.96 0 6 0 C6 0.33 6 0.66 6 1 C4.02 1 2.04 1 0 1 C0 0.67 0 0.34 0 0 Z " fill="#1F9CF0" transform="translate(87,6)"/>
<path d="" fill="#209DF2" transform="translate(0,0)"/>
<path d="" fill="#0065A9" transform="translate(0,0)"/>
<path d="" fill="#007ACC" transform="translate(0,0)"/>
<path d="" fill="#209EEF" transform="translate(0,0)"/>
<path d="M0 0 C2 1 2 1 2 1 Z " fill="#0065A9" transform="translate(16,94)"/>
<path d="" fill="#0065A9" transform="translate(0,0)"/>
<path d="" fill="#0065A9" transform="translate(0,0)"/>
<path d="" fill="#007ACC" transform="translate(0,0)"/>
<path d="" fill="#007ACC" transform="translate(0,0)"/>
<path d="M0 0 C2 1 2 1 2 1 Z " fill="#007ACC" transform="translate(16,33)"/>
<path d="" fill="#0680D1" transform="translate(0,0)"/>
<path d="" fill="#027DCF" transform="translate(0,0)"/>
<path d="" fill="#007ACC" transform="translate(0,0)"/>
<path d="" fill="#007ACC" transform="translate(0,0)"/>
<path d="" fill="#007ACC" transform="translate(0,0)"/>
<path d="" fill="#007ACC" transform="translate(0,0)"/>
<path d="" fill="#007ACC" transform="translate(0,0)"/>
<path d="" fill="#1C99ED" transform="translate(0,0)"/>
<path d="" fill="#007ACC" transform="translate(0,0)"/>
<path d="" fill="#1B98EB" transform="translate(0,0)"/>
<path d="" fill="#007ACC" transform="translate(0,0)"/>
<path d="" fill="#007ACC" transform="translate(0,0)"/>
<path d="" fill="#007ACC" transform="translate(0,0)"/>
<path d="" fill="#007ACC" transform="translate(0,0)"/>
<path d="" fill="#007ACC" transform="translate(0,0)"/>
<path d="" fill="#007ACC" transform="translate(0,0)"/>
<path d="" fill="#007ACC" transform="translate(0,0)"/>
<path d="" fill="#0065A9" transform="translate(0,0)"/>
<path d="" fill="#007ACC" transform="translate(0,0)"/>
<path d="" fill="#0065A9" transform="translate(0,0)"/>
<path d="" fill="#007ACC" transform="translate(0,0)"/>
<path d="" fill="#0065A9" transform="translate(0,0)"/>
<path d="" fill="#007ACC" transform="translate(0,0)"/>
<path d="" fill="#0065A9" transform="translate(0,0)"/>
<path d="" fill="#007ACC" transform="translate(0,0)"/>
<path d="" fill="#0065A9" transform="translate(0,0)"/>
<path d="" fill="#007ACC" transform="translate(0,0)"/>
<path d="" fill="#0065A9" transform="translate(0,0)"/>
<path d="" fill="#007ACC" transform="translate(0,0)"/>
<path d="" fill="#0065A9" transform="translate(0,0)"/>
<path d="" fill="#007ACC" transform="translate(0,0)"/>
<path d="" fill="#0065AA" transform="translate(0,0)"/>
<path d="" fill="#0071BC" transform="translate(0,0)"/>
<path d="" fill="#007ACC" transform="translate(0,0)"/>
<path d="" fill="#0065A9" transform="translate(0,0)"/>
<path d="" fill="#007ACC" transform="translate(0,0)"/>
<path d="" fill="#0065A9" transform="translate(0,0)"/>
<path d="" fill="#007ACC" transform="translate(0,0)"/>
<path d="" fill="#0065A9" transform="translate(0,0)"/>
<path d="" fill="#0065A9" transform="translate(0,0)"/>
<path d="" fill="#0065A9" transform="translate(0,0)"/>
<path d="" fill="#007ACC" transform="translate(0,0)"/>
<path d="" fill="#0065A9" transform="translate(0,0)"/>
<path d="" fill="#0065A9" transform="translate(0,0)"/>
<path d="" fill="#007ACC" transform="translate(0,0)"/>
<path d="" fill="#0065A9" transform="translate(0,0)"/>
<path d="" fill="#007ACC" transform="translate(0,0)"/>
<path d="" fill="#007ACC" transform="translate(0,0)"/>
<path d="" fill="#007ACC" transform="translate(0,0)"/>
<path d="" fill="#0065A9" transform="translate(0,0)"/>
<path d="" fill="#007ACC" transform="translate(0,0)"/>
<path d="" fill="#007ACC" transform="translate(0,0)"/>
<path d="" fill="#0065A9" transform="translate(0,0)"/>
<path d="" fill="#0065A9" transform="translate(0,0)"/>
<path d="" fill="#007ACC" transform="translate(0,0)"/>
<path d="" fill="#0075C4" transform="translate(0,0)"/>
<path d="" fill="#007ACC" transform="translate(0,0)"/>
<path d="" fill="#0065A9" transform="translate(0,0)"/>
<path d="" fill="#007ACC" transform="translate(0,0)"/>
<path d="" fill="#0065A9" transform="translate(0,0)"/>
<path d="" fill="#0065A9" transform="translate(0,0)"/>
<path d="" fill="#007ACC" transform="translate(0,0)"/>
<path d="" fill="#0065A9" transform="translate(0,0)"/>
<path d="" fill="#007ACC" transform="translate(0,0)"/>
<path d="" fill="#0065A9" transform="translate(0,0)"/>
<path d="" fill="#007ACC" transform="translate(0,0)"/>
<path d="" fill="#0065A9" transform="translate(0,0)"/>
<path d="" fill="#007ACC" transform="translate(0,0)"/>
<path d="" fill="#0065A9" transform="translate(0,0)"/>
<path d="" fill="#007ACC" transform="translate(0,0)"/>
<path d="" fill="#0065A9" transform="translate(0,0)"/>
<path d="" fill="#007ACC" transform="translate(0,0)"/>
<path d="" fill="#0065A9" transform="translate(0,0)"/>
<path d="" fill="#0065A9" transform="translate(0,0)"/>
<path d="" fill="#0065A9" transform="translate(0,0)"/>
<path d="" fill="#0065A9" transform="translate(0,0)"/>
<path d="" fill="#0065A9" transform="translate(0,0)"/>
<path d="" fill="#1B95E6" transform="translate(0,0)"/>
<path d="" fill="#0065A9" transform="translate(0,0)"/>
<path d="" fill="#1B96E7" transform="translate(0,0)"/>
<path d="" fill="#0065A9" transform="translate(0,0)"/>
<path d="" fill="#0065A9" transform="translate(0,0)"/>
<path d="" fill="#0065A9" transform="translate(0,0)"/>
<path d="" fill="#0065A9" transform="translate(0,0)"/>
<path d="" fill="#0065A9" transform="translate(0,0)"/>
<path d="" fill="#0065A9" transform="translate(0,0)"/>
<path d="" fill="#0269AF" transform="translate(0,0)"/>
<path d="" fill="#066EB3" transform="translate(0,0)"/>
</svg>
